<svg width="16" height="16" viewBox="0 0 16 16" fill="none" xmlns="http://www.w3.org/2000/svg">
<path d="M13.3332 4.6665H7.33317M9.33317 11.3332H3.33317M9.33317 11.3332C9.33317 12.4377 10.2286 13.3332 11.3332 13.3332C12.4377 13.3332 13.3332 12.4377 13.3332 11.3332C13.3332 10.2286 12.4377 9.33317 11.3332 9.33317C10.2286 9.33317 9.33317 10.2286 9.33317 11.3332ZM6.6665 4.6665C6.6665 5.77107 5.77107 6.6665 4.6665 6.6665C3.56193 6.6665 2.6665 5.77107 2.6665 4.6665C2.6665 3.56193 3.56193 2.6665 4.6665 2.6665C5.77107 2.6665 6.6665 3.56193 6.6665 4.6665Z" stroke="currentColor" stroke-width="2" stroke-linecap="round" stroke-linejoin="round"/>
</svg>
