<svg width="25" height="25" viewBox="0 0 25 25" fill="none" xmlns="http://www.w3.org/2000/svg">
<path d="M11.6228 21.3391C11.891 21.446 12.1784 21.5007 12.4686 21.5C12.7588 21.5007 13.0462 21.446 13.3144 21.3391C13.5826 21.2322 13.8262 21.0752 14.0313 20.8771L21.7346 13.438C22.3415 12.8504 22.8117 12.1449 23.1139 11.3683C23.4161 10.5917 23.5433 9.76186 23.487 8.93412C23.4308 8.10638 23.1925 7.29969 22.7878 6.56778C22.3832 5.83588 21.8215 5.19554 21.1403 4.68942C19.9436 3.83516 18.4666 3.42826 16.9828 3.54408C15.499 3.65991 14.109 4.29061 13.0702 5.31937C12.7345 5.64323 12.2027 5.64323 11.867 5.31937L11.735 5.19196C11.1781 4.64904 10.5138 4.21955 9.78159 3.92896C9.0494 3.63837 8.26417 3.4926 7.47248 3.50029C6.69471 3.49282 5.92305 3.63347 5.20171 3.91417C4.48037 4.19487 3.82352 4.61012 3.26878 5.13612C2.71404 5.66212 2.27231 6.28854 1.96889 6.97951C1.66547 7.67048 1.50633 8.4124 1.50058 9.1628C1.48915 9.98164 1.64673 10.7945 1.96413 11.554C2.28154 12.3135 2.75243 13.0045 3.34937 13.5866L10.9059 20.8771C11.111 21.0752 11.3546 21.2322 11.6228 21.3391Z" stroke="#162035" stroke-width="2.5"/>
</svg>
