<svg width="20" height="20" viewBox="0 0 20 20" fill="none" xmlns="http://www.w3.org/2000/svg">
<path d="M9.26902 17.3659C9.4925 17.455 9.73204 17.5006 9.97385 17.5C10.2157 17.5006 10.4552 17.455 10.6787 17.3659C10.9022 17.2768 11.1052 17.146 11.2761 16.9809L17.6955 10.7817C18.2013 10.292 18.5931 9.70405 18.8449 9.05688C19.0967 8.40972 19.2027 7.71822 19.1559 7.02843C19.109 6.33865 18.9104 5.66641 18.5732 5.05649C18.236 4.44656 17.768 3.91295 17.2003 3.49118C16.203 2.7793 14.9722 2.44022 13.7357 2.53674C12.4992 2.63326 11.3408 3.15884 10.4752 4.01614C10.1954 4.28603 9.75226 4.28603 9.47253 4.01614L9.36248 3.90997C8.89838 3.45753 8.34483 3.09962 7.73466 2.85746C7.1245 2.61531 6.47014 2.49383 5.8104 2.50024C5.16226 2.49402 4.51921 2.61122 3.9181 2.84514C3.31698 3.07906 2.7696 3.4251 2.30732 3.86343C1.84504 4.30177 1.47693 4.82379 1.22408 5.39959C0.971231 5.9754 0.838612 6.59367 0.833819 7.219C0.824293 7.90137 0.955608 8.57874 1.22011 9.21166C1.48462 9.84457 1.87703 10.4204 2.37448 10.9055L8.67163 16.9809C8.8425 17.146 9.04553 17.2768 9.26902 17.3659Z" stroke="#2C2B7C" stroke-width="1.5"/>
</svg>
