<svg width="24" height="25" viewBox="0 0 24 25" fill="none" xmlns="http://www.w3.org/2000/svg">
<path d="M21 17.7187C21 17.9502 20.955 18.2524 20.8714 18.619C20.7879 18.9855 20.6979 19.2814 20.6014 19.4936C20.4214 19.918 19.9007 20.3746 19.0393 20.8505C18.2357 21.2878 17.445 21.5 16.6607 21.5C16.4293 21.5 16.2043 21.4871 15.9921 21.455C15.78 21.4228 15.5293 21.3714 15.2593 21.2942C14.9893 21.217 14.7836 21.1527 14.655 21.1077C14.5264 21.0627 14.2886 20.9727 13.9479 20.8441C13.6071 20.7154 13.395 20.6383 13.3243 20.6125C12.4886 20.3167 11.7429 19.963 11.0871 19.5514C9.99429 18.8762 8.86929 17.9566 7.70571 16.7926C6.54214 15.6286 5.62286 14.5032 4.94786 13.41C4.53643 12.754 4.18286 12.008 3.88714 11.172C3.86143 11.0949 3.78429 10.8891 3.65571 10.5482C3.52714 10.2074 3.44357 9.96945 3.39214 9.84084C3.34071 9.71222 3.28286 9.50643 3.20571 9.23633C3.12857 8.96624 3.07714 8.71543 3.045 8.50322C3.01286 8.291 3 8.05949 3 7.83441C3 7.04984 3.21857 6.25884 3.64929 5.45498C4.13143 4.59325 4.58143 4.07235 5.00571 3.89871C5.21786 3.80225 5.51357 3.71222 5.88 3.62862C6.24643 3.54502 6.54857 3.5 6.78 3.5C6.90214 3.5 6.98571 3.51286 7.05 3.53859C7.20429 3.59003 7.42929 3.91158 7.725 4.50965C7.82143 4.67042 7.94357 4.90193 8.11071 5.19775C8.27143 5.49357 8.41929 5.76367 8.56071 6.00804C8.70214 6.25241 8.83071 6.47749 8.95929 6.68971C8.985 6.72187 9.06214 6.83119 9.18429 7.01125C9.30643 7.19132 9.39643 7.33923 9.46071 7.46785C9.525 7.59646 9.55071 7.71222 9.55071 7.83441C9.55071 8.00804 9.42857 8.22026 9.18429 8.47106C8.94 8.72187 8.67643 8.95981 8.39357 9.17203C8.11071 9.38424 7.84071 9.60932 7.60286 9.84727C7.365 10.0852 7.23643 10.2846 7.23643 10.4325C7.23643 10.5096 7.25571 10.6061 7.30071 10.7219C7.34571 10.8376 7.37786 10.9212 7.41 10.9855C7.44214 11.0498 7.5 11.1463 7.59 11.2942C7.68 11.4421 7.73143 11.5193 7.73786 11.5386C8.38714 12.709 9.12643 13.7058 9.96214 14.5418C10.7979 15.3778 11.8007 16.1174 12.9643 16.7669C12.9836 16.7733 13.0607 16.8248 13.2086 16.9148C13.3564 17.0048 13.4529 17.0627 13.5171 17.0949C13.5814 17.127 13.665 17.1592 13.7807 17.2042C13.8964 17.2492 13.9929 17.2685 14.07 17.2685C14.2243 17.2685 14.4171 17.1463 14.655 16.9019C14.8929 16.6576 15.1179 16.3939 15.33 16.1109C15.5421 15.828 15.78 15.5579 16.0307 15.3199C16.2814 15.082 16.5 14.9534 16.6671 14.9534C16.7893 14.9534 16.905 14.9855 17.0336 15.0434C17.1621 15.1013 17.31 15.1977 17.49 15.3199C17.67 15.4421 17.7729 15.5193 17.8114 15.545C18.0236 15.6736 18.255 15.8023 18.4929 15.9437C18.7307 16.0852 19.0071 16.2267 19.3029 16.3939C19.5986 16.5611 19.83 16.6833 19.9907 16.7797C20.5886 17.0756 20.91 17.3071 20.9614 17.455C20.9871 17.5129 21 17.6029 21 17.7251V17.7187Z" fill="#4946FF"/>
</svg>
