<svg width="25" height="25" viewBox="0 0 25 25" fill="none" xmlns="http://www.w3.org/2000/svg">
<g clip-path="url(#clip0_2001_10593)">
<path d="M22.7058 5.51466C22.4012 8.67678 21.0815 16.3619 20.4114 19.9043C20.1272 21.4053 19.5587 21.9056 19.0307 21.9657C17.8531 22.0657 16.9597 21.2051 15.8227 20.4647C14.0359 19.3039 13.0207 18.5834 11.2948 17.4626C9.2847 16.1618 10.5842 15.4413 11.7415 14.2805C12.0461 13.9803 17.244 9.3172 17.3455 8.89692C17.3596 8.83327 17.3577 8.76718 17.34 8.7044C17.3223 8.64162 17.2894 8.58405 17.244 8.53668C17.1221 8.43662 16.9597 8.47664 16.8176 8.49666C16.6348 8.53668 13.7922 10.3979 8.24919 14.0804C7.43702 14.6207 6.70606 14.9009 6.05633 14.8809C5.32537 14.8609 3.94469 14.4807 2.90917 14.1404C1.63 13.7402 0.635094 13.52 0.716311 12.8195C0.756919 12.4593 1.26453 12.0991 2.21883 11.7188C8.14767 9.17711 12.0867 7.49599 14.0562 6.69545C19.7008 4.3739 20.8581 3.97363 21.6297 3.97363C21.7921 3.97363 22.1779 4.01366 22.4216 4.21379C22.6246 4.3739 22.6855 4.59405 22.7058 4.75415C22.6855 4.87423 22.7261 5.23448 22.7058 5.51466Z" fill="#4946FF"/>
</g>
<defs>
<clipPath id="clip0_2001_10593">
<rect width="24" height="24" fill="white" transform="translate(0.5 0.5)"/>
</clipPath>
</defs>
</svg>
