<svg width="48" height="48" viewBox="0 0 48 48" fill="none" xmlns="http://www.w3.org/2000/svg">
<rect x="1" y="1" width="46" height="46" rx="15" stroke="currentColor" stroke-width="2"/>
<path d="M31.8911 18.5848C31.6507 21.0812 30.6088 27.1484 30.0798 29.945C29.8554 31.13 29.4065 31.525 28.9898 31.5724C28.06 31.6514 27.3547 30.972 26.4571 30.3874C25.0465 29.471 24.245 28.9022 22.8825 28.0174C21.2955 26.9904 22.3214 26.4216 23.2351 25.5052C23.4756 25.2682 27.5792 21.5868 27.6593 21.255C27.6704 21.2047 27.669 21.1525 27.655 21.103C27.641 21.0534 27.615 21.008 27.5792 20.9706C27.483 20.8916 27.3547 20.9232 27.2425 20.939C27.0983 20.9706 24.8541 22.44 20.478 25.3472C19.8368 25.7738 19.2598 25.995 18.7468 25.9792C18.1697 25.9634 17.0797 25.6632 16.2622 25.3946C15.2523 25.0786 14.4669 24.9048 14.531 24.3518C14.5631 24.0674 14.9638 23.783 15.7172 23.4828C20.3979 21.4762 23.5076 20.149 25.0625 19.517C29.5187 17.6842 30.4324 17.3682 31.0416 17.3682C31.1698 17.3682 31.4744 17.3998 31.6667 17.5578C31.827 17.6842 31.8751 17.858 31.8911 17.9844C31.8751 18.0792 31.9072 18.3636 31.8911 18.5848Z" fill="currentColor"/>
</svg>
