<svg width="24" height="25" viewBox="0 0 24 25" fill="none" xmlns="http://www.w3.org/2000/svg">
<path d="M2.5 5C2.5 3.89543 3.39543 3 4.5 3H8.5C9.60457 3 10.5 3.89543 10.5 5V9C10.5 10.1046 9.60457 11 8.5 11H4.5C3.39543 11 2.5 10.1046 2.5 9V5Z" stroke="currentColor" stroke-width="2"/>
<path d="M13.5 5C13.5 3.89543 14.3954 3 15.5 3H19.5C20.6046 3 21.5 3.89543 21.5 5V9C21.5 10.1046 20.6046 11 19.5 11H15.5C14.3954 11 13.5 10.1046 13.5 9V5Z" stroke="currentColor" stroke-width="2"/>
<path d="M2.5 16C2.5 14.8954 3.39543 14 4.5 14H8.5C9.60457 14 10.5 14.8954 10.5 16V20C10.5 21.1046 9.60457 22 8.5 22H4.5C3.39543 22 2.5 21.1046 2.5 20V16Z" stroke="currentColor" stroke-width="2"/>
<path d="M13.5 16C13.5 14.8954 14.3954 14 15.5 14H19.5C20.6046 14 21.5 14.8954 21.5 16V20C21.5 21.1046 20.6046 22 19.5 22H15.5C14.3954 22 13.5 21.1046 13.5 20V16Z" stroke="currentColor" stroke-width="2"/>
</svg>
