<svg width="24" height="25" viewBox="0 0 24 25" fill="none" xmlns="http://www.w3.org/2000/svg">
<path fill-rule="evenodd" clip-rule="evenodd" d="M17.0401 14.6837C16.7664 14.5474 15.4207 13.8885 15.1698 13.7975C14.919 13.7066 14.7365 13.6612 14.554 13.9338C14.3716 14.2065 13.8471 14.8201 13.6874 15.0018C13.5277 15.1837 13.368 15.2064 13.0943 15.07C12.8207 14.9337 11.9387 14.6461 10.8932 13.718C10.0797 12.9957 9.53021 12.1037 9.3706 11.831C9.21088 11.5583 9.35355 11.4108 9.49061 11.2751C9.61381 11.153 9.7644 10.957 9.90113 10.7979C10.0381 10.6389 10.0836 10.5252 10.1748 10.3435C10.266 10.1616 10.2205 10.0026 10.1519 9.86626C10.0836 9.72997 9.53615 8.38912 9.30812 7.84361C9.08592 7.31255 8.86031 7.38447 8.69234 7.37604C8.53284 7.36816 8.35013 7.36652 8.16775 7.36652C7.98536 7.36652 7.68869 7.43472 7.43778 7.70731C7.18698 7.98002 6.4799 8.63905 6.4799 9.97979C6.4799 11.3205 7.46066 12.6158 7.5975 12.7977C7.73434 12.9795 9.52746 15.7308 12.2732 16.9107C12.9261 17.1914 13.436 17.359 13.8334 17.4845C14.4891 17.6918 15.0858 17.6626 15.5574 17.5924C16.0832 17.5143 17.1767 16.9335 17.4048 16.2973C17.6329 15.661 17.6329 15.1156 17.5644 15.0019C17.496 14.8883 17.3136 14.8201 17.0398 14.6838M12.0458 21.47H12.0421C10.4083 21.4694 8.80597 21.0326 7.40808 20.207L7.07555 20.0106L3.62967 20.9103L4.54939 17.5666L4.33291 17.2237C3.42144 15.7811 2.94008 14.1137 2.94085 12.4016C2.94283 7.40571 7.02715 3.34125 12.0492 3.34125C14.481 3.34202 16.767 4.2858 18.486 5.99853C20.205 7.71126 21.1511 9.98778 21.1501 12.4088C21.148 17.405 17.0638 21.4699 12.0456 21.4699M19.7948 4.69709C17.7266 2.63656 14.9763 1.5012 12.0459 1.5C6.00821 1.5 1.09427 6.39023 1.09174 12.4009C1.09097 14.3224 1.59532 16.1977 2.55398 17.851L1 23.5001L6.80682 21.9841C8.40678 22.8527 10.2081 23.3104 12.0415 23.311H12.046C18.0831 23.311 22.9976 18.4204 23 12.4096C23.0011 9.49668 21.8627 6.75773 19.7947 4.69709" fill="#4946FF"/>
</svg>
