<svg width="48" height="48" viewBox="0 0 48 48" fill="none" xmlns="http://www.w3.org/2000/svg">
<rect x="1" y="1" width="46" height="46" rx="15" stroke="currentColor" stroke-width="2"/>
<g clip-path="url(#clip0_852_2519)">
<path d="M23.9891 14C18.4734 14 14 18.4783 14 24C14 26.087 14.6298 28.0652 15.8241 29.7609L14.0434 33.6739C14 33.7609 14.0217 33.8478 14.0869 33.913C14.152 33.9783 14.2389 34 14.3257 33.9783L18.6037 32.413C20.2106 33.4565 22.0782 34 23.9891 34H24.0109C29.5266 34 34 29.5217 34 24C34 18.4783 29.5049 14 23.9891 14ZM29.5483 27.8478C29.4832 28.0217 29.3312 28.2174 29.2443 28.3696C29.0489 28.6304 28.81 28.8913 28.5928 29.0652C28.5494 29.1087 28.506 29.1304 28.4625 29.1739C28.4191 29.1957 28.3974 29.2174 28.354 29.2391C28.1802 29.3696 28.0065 29.4565 27.8545 29.5C27.7459 29.5435 27.6156 29.5652 27.4853 29.5652H27.3768C27.1596 29.5652 27.0293 29.5217 26.7253 29.413C26.4864 29.3043 26.2258 29.1957 25.9435 29.087L25.8784 29.0435C25.6395 28.9348 25.4007 28.8043 25.1618 28.6957L25.0749 28.6304C24.836 28.5 24.6189 28.3696 24.4017 28.2391L24.3583 28.1957C22.8599 27.2609 21.6004 26.1304 20.5147 24.7174C20.4061 24.587 20.3192 24.4565 20.2106 24.3261C20.1672 24.2609 20.1238 24.1957 20.0803 24.1304L19.9501 23.9348C19.8632 23.8043 19.798 23.6957 19.7112 23.5652L19.6895 23.5435C19.6243 23.413 19.5375 23.3043 19.4723 23.1739C19.4723 23.1739 19.4506 23.1522 19.4506 23.1304C19.1031 22.5217 18.7991 21.8913 18.582 21.2826C18.3431 20.6304 18.278 20.2174 18.5385 19.7609C18.6471 19.5652 19.0597 19.1739 19.342 18.9783C19.8415 18.6087 20.0586 18.4783 20.2758 18.4348C20.4278 18.413 20.6667 18.413 20.8404 18.4783C20.9273 18.5 21.0358 18.5652 21.101 18.6087C21.5136 18.8696 22.4691 20.1087 22.7731 20.6957C22.9902 21.087 23.0337 21.3913 22.9685 21.6304C22.9034 21.8913 22.7514 22.0435 22.317 22.3696C22.2302 22.4565 22.1216 22.5217 22.0565 22.587L22.013 22.6304L21.9913 22.6522C21.9479 22.6957 21.9262 22.8261 21.9262 22.913C21.9262 23.1304 22.0782 23.6304 22.3388 24.0217C22.5342 24.3261 22.8599 24.7174 23.2074 25.0217C23.5983 25.3696 23.9457 25.6087 24.3366 25.8043C24.7926 26.0217 25.0749 26.087 25.2269 26.0217C25.2486 26 25.2921 26 25.3138 25.9783C25.3572 25.9348 25.4441 25.8261 25.5961 25.6522C25.8132 25.3696 25.9218 25.2609 26.0955 25.1739C26.139 25.1522 26.2041 25.1304 26.2476 25.1087C26.5516 25 26.8773 25.0217 27.1813 25.1957C27.3985 25.3043 27.8328 25.5652 28.1151 25.7609C28.4625 26 29.2877 26.6522 29.418 26.8043C29.5483 26.9565 29.6352 27.1522 29.6352 27.3696C29.6569 27.5 29.6135 27.6739 29.5483 27.8478Z" fill="currentColor"/>
</g>
<defs>
<clipPath id="clip0_852_2519">
<rect width="20" height="20" fill="white" transform="translate(14 14)"/>
</clipPath>
</defs>
</svg>
