<svg width="248" height="408" viewBox="0 0 248 408" fill="none" xmlns="http://www.w3.org/2000/svg">
<path d="M99.205 86.2246H85.4449C70.5049 86.2246 56.905 86.9646 44.485 88.3246C68.925 103.345 83.825 122.085 92.665 141.085C171.745 141.245 181.445 172.805 183.465 178.905H266.365V175.545C266.045 149.025 244.225 86.2046 99.225 86.2046L99.205 86.2246ZM64.865 206.785C64.865 257.305 35.625 321.365 -107.375 321.025H-431.775C-573.435 321.025 -604.335 262.645 -604.335 209.925V200.465C-604.335 149.945 -575.095 85.8846 -432.095 86.2246H-107.715C33.9451 86.2246 64.845 144.605 64.845 197.325V206.785H64.865ZM-15.335 202.045C-15.335 178.065 -25.855 142.685 -113.615 142.685H-425.855C-512.635 142.685 -524.135 179.305 -524.135 203.305V205.205C-524.135 229.185 -513.615 264.565 -425.855 264.565H-113.615C-26.855 264.565 -15.335 227.945 -15.335 203.945V202.045ZM92.625 266.085C83.805 285.105 68.905 303.845 44.4449 318.845C56.8849 320.225 70.485 320.945 85.405 320.945H99.165C244.165 320.945 265.985 258.145 266.305 231.605V228.245H183.405C181.385 234.345 171.685 265.905 92.605 266.065L92.625 266.085ZM496.185 141.165C505.025 122.145 519.925 103.405 544.365 88.4046C531.925 87.0246 518.325 86.3046 503.405 86.3046H489.645C344.645 86.3046 322.825 149.105 322.505 175.645V179.005H405.405C407.425 172.905 417.125 141.345 496.205 141.185L496.185 141.165ZM496.185 266.145C417.105 265.985 407.405 234.445 405.385 228.325H322.485V231.685C322.805 258.205 344.625 321.025 489.625 321.025H503.385C518.325 321.025 531.925 320.285 544.345 318.925C519.905 303.905 505.005 285.165 496.165 266.165L496.185 266.145ZM-463.595 377.185H-477.355C-492.295 377.185 -505.895 377.925 -518.315 379.285C-493.875 394.305 -478.975 413.045 -470.135 432.045C-391.055 432.205 -381.355 463.765 -379.335 469.865H-296.435V466.505C-296.755 439.985 -318.575 377.165 -463.575 377.165L-463.595 377.185ZM-470.175 557.045C-478.995 576.065 -493.895 594.805 -518.355 609.805C-505.915 611.185 -492.315 611.905 -477.395 611.905H-463.635C-318.635 611.905 -296.815 549.105 -296.495 522.565V519.205H-379.395C-381.415 525.305 -391.115 556.865 -470.195 557.025L-470.175 557.045ZM-66.615 432.125C-57.775 413.105 -42.8751 394.365 -18.4351 379.365C-30.8751 377.985 -44.475 377.265 -59.395 377.265H-73.155C-218.155 377.265 -239.975 440.065 -240.295 466.605V469.965H-157.395C-155.375 463.865 -145.675 432.305 -66.595 432.145L-66.615 432.125ZM-66.615 557.105C-145.695 556.945 -155.395 525.405 -157.415 519.285H-240.315V522.645C-239.995 549.165 -218.175 611.985 -73.175 611.985H-59.415C-44.475 611.985 -30.8749 611.245 -18.455 609.885C-42.895 594.865 -57.795 576.125 -66.635 557.125L-66.615 557.105ZM664.685 377.185H650.925C635.985 377.185 622.385 377.925 609.965 379.285C634.405 394.305 649.305 413.045 658.145 432.045C737.225 432.205 746.925 463.765 748.945 469.865H831.845V466.505C831.525 439.985 809.705 377.165 664.705 377.165L664.685 377.185ZM630.345 497.745C630.345 548.265 601.105 612.325 458.105 611.985H133.705C-7.95508 611.985 -38.855 553.605 -38.855 500.885V491.425C-38.855 440.905 -9.61511 376.845 133.385 377.185H457.765C599.425 377.185 630.325 435.565 630.325 488.285V497.745H630.345ZM550.145 493.005C550.145 469.025 539.625 433.645 451.865 433.645H139.625C52.8448 433.645 41.345 470.265 41.345 494.265V496.165C41.345 520.145 51.8649 555.525 139.625 555.525H451.865C538.625 555.525 550.145 518.905 550.145 494.905V493.005ZM658.105 557.045C649.285 576.065 634.385 594.805 609.925 609.805C622.365 611.185 635.965 611.905 650.885 611.905H664.645C809.645 611.905 831.465 549.105 831.785 522.565V519.205H748.885C746.865 525.305 737.165 556.865 658.085 557.025L658.105 557.045ZM658.105 -24.8154C649.265 -5.79541 634.365 12.9446 609.925 27.9446C622.365 29.3246 635.965 30.0446 650.885 30.0446H664.645C809.645 30.0446 831.465 -32.7554 831.785 -59.2954V-62.6554H748.885C746.865 -56.5554 737.165 -24.9954 658.085 -24.8354L658.105 -24.8154ZM658.105 -149.795C737.185 -149.635 746.885 -118.095 748.905 -111.975H831.805V-115.335C831.485 -141.855 809.665 -204.675 664.665 -204.675H650.905C635.965 -204.675 622.365 -203.935 609.945 -202.575C634.385 -187.555 649.285 -168.815 658.125 -149.815L658.105 -149.795ZM-73.1949 30.1246H-59.4351C-44.4951 30.1246 -30.895 29.3846 -18.475 28.0246C-42.915 13.0046 -57.815 -5.73541 -66.655 -24.7354C-145.735 -24.8954 -155.435 -56.4554 -157.455 -62.5554H-240.355V-59.1954C-240.035 -32.6754 -218.215 30.1446 -73.215 30.1446L-73.1949 30.1246ZM-38.855 -90.4354C-38.855 -140.955 -9.61511 -205.015 133.385 -204.675H457.785C599.445 -204.675 630.345 -146.295 630.345 -93.5754V-84.1154C630.345 -33.5954 601.105 30.4646 458.105 30.1246H133.725C-7.93506 30.1246 -38.835 -28.2554 -38.835 -80.9754V-90.4354H-38.855ZM41.345 -85.6954C41.345 -61.7154 51.8649 -26.3354 139.625 -26.3354H451.865C538.645 -26.3354 550.145 -62.9554 550.145 -86.9554V-88.8554C550.145 -112.835 539.625 -148.215 451.865 -148.215H139.625C52.8649 -148.215 41.345 -111.595 41.345 -87.5954V-85.6954ZM-66.615 -149.735C-57.795 -168.755 -42.8951 -187.495 -18.4351 -202.495C-30.8751 -203.875 -44.475 -204.595 -59.395 -204.595H-73.155C-218.155 -204.595 -239.975 -141.795 -240.295 -115.255V-111.895H-157.395C-155.375 -117.995 -145.675 -149.555 -66.595 -149.715L-66.615 -149.735ZM-470.175 -24.8154C-479.015 -5.79541 -493.915 12.9446 -518.355 27.9446C-505.915 29.3246 -492.315 30.0446 -477.395 30.0446H-463.635C-318.635 30.0446 -296.815 -32.7554 -296.495 -59.2954V-62.6554H-379.395C-381.415 -56.5554 -391.115 -24.9954 -470.195 -24.8354L-470.175 -24.8154ZM-470.175 -149.795C-391.095 -149.635 -381.395 -118.095 -379.375 -111.975H-296.475V-115.335C-296.795 -141.855 -318.615 -204.675 -463.615 -204.675H-477.375C-492.315 -204.675 -505.915 -203.935 -518.335 -202.575C-493.895 -187.555 -478.995 -168.815 -470.155 -149.815L-470.175 -149.795Z" fill="#BEC8F5" fill-opacity="0.05"/>
</svg>
