<svg width="1528" height="614" viewBox="0 0 1528 614" fill="none" xmlns="http://www.w3.org/2000/svg">
<path d="M571.32 -34.0495C534.54 -38.0995 494.34 -40.2595 450.18 -40.2595H409.47C-19.3501 -40.2595 -83.8501 145.471 -84.8101 223.921V233.85H160.35C166.29 215.79 195 122.491 428.85 122.041C454.95 65.8205 499.02 10.4105 571.32 -34.0195V-34.0495ZM1021.29 653.85H1612.65V489.6H1038.78C779.28 489.6 748.17 382.291 748.17 311.341V305.73C748.17 234.781 782.19 126.48 1038.78 126.48H1612.65V-40.4395H1020.36C597.48 -41.4295 511.02 148.021 511.02 297.391V325.381C511.02 481.26 602.37 653.91 1021.29 653.91V653.85ZM428.88 491.58C195.03 491.13 166.32 397.801 160.38 379.771H-84.8101V389.701C-83.8501 468.12 -19.3501 653.88 409.47 653.88H450.18C494.34 653.88 534.57 651.721 571.32 647.641C499.05 603.24 454.98 547.83 428.85 491.58H428.88Z" fill="#F2F6FF"/>
</svg>
