<svg width="2052" height="504" viewBox="0 0 2052 504" fill="none" xmlns="http://www.w3.org/2000/svg">
<path d="M746.118 236.775H694.994V234.701C695.191 218.334 708.647 179.565 798.069 179.565H806.554C815.768 179.565 824.155 180.022 831.814 180.861C816.742 190.131 807.553 201.696 802.102 213.422C753.333 213.52 747.351 232.998 746.106 236.762L746.118 236.775ZM802.114 290.565C753.346 290.466 747.364 271.002 746.118 267.225H694.994V269.298C695.191 285.665 708.647 324.434 798.069 324.434H806.554C815.768 324.434 824.155 323.977 831.814 323.138C816.742 313.869 807.553 302.303 802.102 290.577L802.114 290.565ZM1253.11 179.528H1244.62C1235.41 179.528 1227.02 179.985 1219.36 180.824C1234.43 190.094 1243.62 201.659 1249.07 213.385C1297.84 213.483 1303.82 232.961 1305.07 236.725H1356.19V234.652C1356 218.285 1342.54 179.516 1253.12 179.516L1253.11 179.528ZM1231.93 253.931C1231.93 285.109 1213.9 324.644 1125.71 324.434H1025.58H925.651C838.29 324.434 819.234 288.405 819.234 255.869V250.031C819.234 218.853 837.266 179.318 925.454 179.528H1025.57H1125.5C1212.86 179.528 1231.92 215.557 1231.92 248.093V253.931H1231.93ZM1182.47 251.006C1182.47 236.207 1175.98 214.372 1121.86 214.372H929.302C875.785 214.372 868.693 236.972 868.693 251.784V252.956C868.693 267.755 875.18 289.59 929.302 289.59H1121.86C1175.36 289.59 1182.47 266.99 1182.47 252.179V251.006ZM1249.05 290.528C1243.61 302.266 1234.42 313.832 1219.33 323.089C1227.01 323.94 1235.39 324.385 1244.59 324.385H1253.08C1342.5 324.385 1355.96 285.628 1356.16 269.249V267.175H1305.03C1303.79 270.94 1297.8 290.417 1249.03 290.516L1249.05 290.528ZM1497.92 213.434C1503.37 201.696 1512.56 190.131 1527.63 180.873C1519.96 180.022 1511.58 179.577 1502.37 179.577H1493.89C1404.47 179.577 1391.01 218.334 1390.81 234.713V236.787H1441.94C1443.18 233.022 1449.17 213.545 1497.93 213.446L1497.92 213.434ZM1497.92 290.565C1449.15 290.466 1443.17 271.002 1441.93 267.225H1390.8V269.298C1391 285.665 1404.46 324.434 1493.88 324.434H1502.36C1511.58 324.434 1519.96 323.977 1527.62 323.138C1512.55 313.869 1503.36 302.303 1497.91 290.577L1497.92 290.565ZM1948.91 179.528H1940.43C1931.21 179.528 1922.83 179.985 1915.17 180.824C1930.24 190.094 1939.43 201.659 1944.88 213.385C1993.65 213.483 1999.63 232.961 2000.88 236.725H2052V234.652C2051.8 218.285 2038.35 179.516 1948.93 179.516L1948.91 179.528ZM1927.74 253.931C1927.74 285.109 1909.7 324.644 1821.52 324.434H1721.39H1621.46C1534.1 324.434 1515.04 288.405 1515.04 255.869V250.031C1515.04 218.853 1533.07 179.318 1621.26 179.528H1721.38H1821.31C1908.67 179.528 1927.72 215.557 1927.72 248.093V253.931H1927.74ZM1878.28 251.006C1878.28 236.207 1871.79 214.372 1817.67 214.372H1625.11C1571.59 214.372 1564.5 236.972 1564.5 251.784V252.956C1564.5 267.755 1570.99 289.59 1625.11 289.59H1817.67C1871.17 289.59 1878.28 266.99 1878.28 252.179V251.006ZM1944.85 290.528C1939.42 302.266 1930.23 313.832 1915.14 323.089C1922.81 323.94 1931.2 324.385 1940.4 324.385H1948.89C2038.31 324.385 2051.77 285.628 2051.96 269.249V267.175H2000.84C1999.59 270.94 1993.61 290.417 1944.84 290.516L1944.85 290.528ZM455.037 392.999C460.488 381.261 469.677 369.696 484.749 360.438C477.077 359.587 468.69 359.142 459.489 359.142H451.003C361.582 359.142 348.126 397.899 347.929 414.278V416.352H399.053C400.299 412.587 406.28 393.11 455.049 393.011L455.037 392.999ZM455.037 470.13C406.268 470.031 400.286 450.567 399.04 446.79H347.916V448.863C348.114 465.23 361.57 503.999 450.991 503.999H459.477C468.69 503.999 477.077 503.542 484.737 502.703C469.665 493.434 460.476 481.868 455.024 470.143L455.037 470.13ZM906.028 359.093H897.542C888.328 359.093 879.941 359.55 872.282 360.389C887.354 369.659 896.543 381.224 901.994 392.95C950.763 393.049 956.745 412.526 957.991 416.29H1009.11V414.217C1008.92 397.85 995.461 359.081 906.04 359.081L906.028 359.093ZM884.85 433.496C884.85 464.675 866.818 504.209 778.63 503.999H678.503H578.573C491.212 503.999 472.156 467.97 472.156 435.434V429.596C472.156 398.418 490.188 358.883 578.376 359.093H678.491H778.421C865.782 359.093 884.838 395.122 884.838 427.658V433.496H884.85ZM835.391 430.571C835.391 415.772 828.903 393.937 774.782 393.937H582.224C528.707 393.937 521.615 416.537 521.615 431.349V432.521C521.615 447.32 528.103 469.155 582.224 469.155H774.782C828.287 469.155 835.391 446.555 835.391 431.744V430.571ZM901.97 470.093C896.53 481.831 887.342 493.397 872.257 502.654C879.929 503.505 888.316 503.95 897.517 503.95H906.003C995.424 503.95 1008.88 465.193 1009.08 448.814V446.74H957.954C956.708 450.505 950.726 469.982 901.957 470.081L901.97 470.093ZM1150.84 392.999C1156.3 381.261 1165.48 369.696 1180.56 360.438C1172.89 359.587 1164.5 359.142 1155.3 359.142H1146.81C1057.39 359.142 1043.93 397.899 1043.74 414.278V416.352H1094.86C1096.11 412.587 1102.09 393.11 1150.86 393.011L1150.84 392.999ZM1150.84 470.13C1102.08 470.031 1096.09 450.567 1094.85 446.79H1043.72V448.863C1043.92 465.23 1057.38 503.999 1146.8 503.999H1155.28C1164.5 503.999 1172.89 503.542 1180.54 502.703C1165.47 493.434 1156.28 481.868 1150.83 470.143L1150.84 470.13ZM1601.84 359.093H1593.35C1584.14 359.093 1575.75 359.55 1568.09 360.389C1583.16 369.659 1592.35 381.224 1597.8 392.95C1646.57 393.049 1652.55 412.526 1653.8 416.29H1704.92V414.217C1704.73 397.85 1691.27 359.081 1601.85 359.081L1601.84 359.093ZM1580.66 433.496C1580.66 464.675 1562.63 504.209 1474.44 503.999H1374.31H1274.38C1187.02 503.999 1167.96 467.97 1167.96 435.434V429.596C1167.96 398.418 1186 358.883 1274.18 359.093H1374.3H1474.23C1561.59 359.093 1580.65 395.122 1580.65 427.658V433.496H1580.66ZM1531.2 430.571C1531.2 415.772 1524.71 393.937 1470.59 393.937H1278.03C1224.51 393.937 1217.42 416.537 1217.42 431.349V432.521C1217.42 447.32 1223.91 469.155 1278.03 469.155H1470.59C1524.09 469.155 1531.2 446.555 1531.2 431.744V430.571ZM1597.78 470.093C1592.34 481.831 1583.15 493.397 1568.06 502.654C1575.74 503.505 1584.12 503.95 1593.32 503.95H1601.81C1691.23 503.95 1704.69 465.193 1704.89 448.814V446.74H1653.76C1652.52 450.505 1646.53 469.982 1597.77 470.081L1597.78 470.093ZM1597.78 111C1592.33 122.738 1583.14 134.304 1568.06 143.561C1575.74 144.412 1584.12 144.857 1593.32 144.857H1601.81C1691.23 144.857 1704.69 106.1 1704.89 89.7208V87.6472H1653.76C1652.52 91.4118 1646.53 110.889 1597.77 110.988L1597.78 111ZM1597.78 33.869C1646.55 33.9678 1652.53 53.4326 1653.77 57.2095H1704.9V55.1359C1704.7 38.7692 1691.24 0 1601.82 0H1593.34C1584.12 0 1575.74 0.456689 1568.08 1.29601C1583.15 10.5656 1592.34 22.1309 1597.79 33.8567L1597.78 33.869ZM1146.79 144.906H1155.27C1164.49 144.906 1172.87 144.449 1180.53 143.61C1165.46 134.341 1156.27 122.775 1150.82 111.049C1102.05 110.951 1096.07 91.4735 1094.82 87.7089H1043.7V89.7825C1043.9 106.149 1057.35 144.918 1146.77 144.918L1146.79 144.906ZM1167.96 70.5029C1167.99 39.3369 1186.02 -0.197487 1274.21 0.0123429H1374.34H1474.27C1561.63 0.0123429 1580.68 36.0414 1580.68 68.5774V74.4156C1580.68 105.594 1562.65 145.128 1474.46 144.918H1374.35H1274.42C1187.06 144.918 1168 108.889 1168 76.3534V70.5152L1167.96 70.5029ZM1217.42 73.4281C1217.42 88.2273 1223.91 110.062 1278.03 110.062H1470.59C1524.11 110.062 1531.2 87.462 1531.2 72.6505V71.4779C1531.2 56.6788 1524.71 34.8441 1470.59 34.8441H1278.03C1224.53 34.8441 1217.42 57.444 1217.42 72.2555V73.4281ZM1150.84 33.906C1156.28 22.1679 1165.47 10.6026 1180.56 1.34538C1172.89 0.493718 1164.5 0.0493717 1155.3 0.0493717H1146.81C1057.39 0.0493717 1043.93 38.8062 1043.74 55.1853V57.2589H1094.86C1096.11 53.4943 1102.09 34.0171 1150.86 33.9184L1150.84 33.906ZM901.97 111C896.518 122.738 887.329 134.304 872.257 143.561C879.929 144.412 888.316 144.857 897.517 144.857H906.003C995.424 144.857 1008.88 106.1 1009.08 89.7208V87.6472H957.954C956.708 91.4118 950.726 110.889 901.957 110.988L901.97 111ZM901.97 33.869C950.738 33.9678 956.72 53.4326 957.966 57.2095H1009.09V55.1359C1008.89 38.7692 995.436 0 906.015 0H897.53C888.316 0 879.929 0.456689 872.27 1.29601C887.342 10.5656 896.53 22.1309 901.982 33.8567L901.97 33.869ZM450.991 144.918H459.477C468.69 144.918 477.077 144.462 484.737 143.622C469.665 134.353 460.476 122.788 455.024 111.062C406.256 110.963 400.274 91.4858 399.028 87.7213H347.904V89.7949C348.101 106.162 361.558 144.931 450.979 144.931L450.991 144.918ZM472.168 70.5152C472.168 39.3369 490.201 -0.197487 578.388 0.0123429H678.516H778.445C865.807 0.0123429 884.863 36.0414 884.863 68.5774V74.4156C884.863 105.594 866.83 145.128 778.643 144.918H678.528H578.598C491.237 144.918 472.181 108.889 472.181 76.3534V70.5152H472.168ZM521.628 73.4405C521.628 88.2397 528.115 110.074 582.237 110.074H774.794C828.311 110.074 835.403 87.4744 835.403 72.6629V71.4903C835.403 56.6911 828.916 34.8565 774.794 34.8565H582.237C528.732 34.8565 521.628 57.4564 521.628 72.2679V73.4405ZM455.049 33.9184C460.488 22.1803 469.677 10.6149 484.761 1.35772C477.09 0.50606 468.703 0.0617147 459.501 0.0617147H451.016C361.595 0.0617147 348.138 38.8185 347.941 55.1976V57.2712H399.065C400.311 53.5066 406.293 34.0295 455.061 33.9307L455.049 33.9184ZM107.12 213.446C112.572 201.708 121.761 190.143 136.833 180.886C129.161 180.034 120.774 179.59 111.573 179.59H103.087C13.6537 179.577 0.197343 218.334 0 234.701V236.775H51.1242C52.37 233.01 58.3519 213.533 107.12 213.434V213.446ZM107.12 290.577C58.3519 290.479 52.37 271.014 51.1242 267.237H0V269.311C0.197343 285.677 13.6537 324.446 103.075 324.446H111.561C120.774 324.446 129.161 323.99 136.821 323.15C121.748 313.881 112.56 302.316 107.108 290.59L107.12 290.577ZM558.111 179.54H549.626C540.412 179.54 532.025 179.997 524.366 180.836C539.438 190.106 548.627 201.671 554.078 213.397C602.847 213.496 608.829 232.973 610.074 236.738H661.199V234.664C661.001 218.297 647.545 179.528 558.124 179.528L558.111 179.54ZM536.934 253.944C536.934 285.122 518.902 324.656 430.714 324.446H330.587H230.657C143.296 324.446 124.24 288.417 124.24 255.881V250.043C124.24 218.865 142.272 179.331 230.46 179.54H330.575H430.504C517.866 179.54 536.922 215.569 536.922 248.105V253.944H536.934ZM487.475 251.018C487.475 236.219 480.987 214.384 426.866 214.384H234.308C180.791 214.384 173.699 236.984 173.699 251.796V252.968C173.699 267.768 180.187 289.602 234.308 289.602H426.866C480.371 289.602 487.475 267.002 487.475 252.191V251.018ZM554.054 290.54C548.614 302.279 539.425 313.844 524.341 323.101C532.013 323.953 540.4 324.397 549.601 324.397H558.087C647.508 324.397 660.964 285.64 661.162 269.261V267.188H610.037C608.792 270.952 602.81 290.429 554.041 290.528L554.054 290.54Z" fill="#F2F6FF"/>
</svg>
