<svg width="1146" height="229" viewBox="0 0 1146 229" fill="none" xmlns="http://www.w3.org/2000/svg">
<path d="M343.2 226.821C355.318 228.16 368.57 228.874 383.124 228.874H396.536C537.868 228.874 559.124 167.636 559.445 141.775V138.499H478.642C476.679 144.453 467.22 175.215 390.147 175.367C381.545 193.908 367.017 212.172 343.191 226.812L343.2 226.821ZM194.9 0.0089268H0V54.1678H189.135C274.667 54.1678 284.92 89.5447 284.92 112.933V114.781C284.92 138.169 273.704 173.876 189.135 173.876H0V228.928H195.212C334.58 229.258 363.082 166.797 363.082 117.548V108.327C363.082 56.9351 332.965 0.0089268 194.9 0.0089268ZM390.156 53.5072C467.229 53.659 476.688 84.4207 478.651 90.3749H559.454V87.0988C559.142 61.2378 537.877 0 396.545 0H383.133C368.579 0 355.327 0.714144 343.209 2.05316C367.035 16.6931 381.554 34.9663 390.165 53.4983L390.156 53.5072Z" fill="#F2F6FF"/>
<path d="M802.8 226.821C790.682 228.16 777.43 228.874 762.876 228.874H749.464C608.132 228.874 586.876 167.636 586.555 141.775V138.499H667.358C669.321 144.453 678.78 175.215 755.853 175.367C764.455 193.908 778.983 212.172 802.809 226.812L802.8 226.821ZM951.1 0.0089268H1146V54.1678H956.865C871.333 54.1678 861.08 89.5447 861.08 112.933V114.781C861.08 138.169 872.296 173.876 956.865 173.876H1146V228.928H950.788C811.42 229.258 782.918 166.797 782.918 117.548V108.327C782.918 56.9351 813.035 0.0089268 951.1 0.0089268ZM755.844 53.5072C678.771 53.659 669.312 84.4207 667.349 90.3749H586.546V87.0988C586.858 61.2378 608.123 0 749.455 0H762.867C777.421 0 790.673 0.714144 802.791 2.05316C778.965 16.6931 764.446 34.9663 755.835 53.4983L755.844 53.5072Z" fill="#F2F6FF"/>
</svg>
