<svg width="1528" height="306" viewBox="0 0 1528 306" fill="none" xmlns="http://www.w3.org/2000/svg">
<path d="M457.6 302.428C473.758 304.213 491.427 305.166 510.832 305.166H528.715C717.157 305.166 745.498 223.515 745.927 189.034V184.666H638.19C635.572 192.605 622.96 233.62 520.196 233.823C508.726 258.544 489.356 282.896 457.588 302.416L457.6 302.428ZM259.866 0.0119024H0V72.2238H252.18C366.223 72.2238 379.894 119.393 379.894 150.577V153.041C379.894 184.225 364.938 231.835 252.18 231.835H0V305.237H260.283C446.107 305.677 484.109 222.396 484.109 156.731V144.436C484.109 75.9135 443.953 0.0119024 259.866 0.0119024ZM520.208 71.343C622.972 71.5453 635.584 112.561 638.201 120.5H745.939V116.132C745.522 81.6505 717.169 0 528.727 0H510.844C491.439 0 473.77 0.952192 457.612 2.73755C489.38 22.2575 508.738 46.6217 520.22 71.3311L520.208 71.343Z" fill="white" fill-opacity="0.1"/>
<path d="M1070.4 302.428C1054.24 304.213 1036.57 305.166 1017.17 305.166H999.285C810.843 305.166 782.502 223.515 782.073 189.034V184.666H889.811C892.428 192.605 905.04 233.62 1007.8 233.823C1019.27 258.544 1038.64 282.896 1070.41 302.416L1070.4 302.428ZM1268.13 0.0119024H1528V72.2238H1275.82C1161.78 72.2238 1148.11 119.393 1148.11 150.577V153.041C1148.11 184.225 1163.06 231.835 1275.82 231.835H1528V305.237H1267.72C1081.89 305.677 1043.89 222.396 1043.89 156.731V144.436C1043.89 75.9135 1084.05 0.0119024 1268.13 0.0119024ZM1007.79 71.343C905.028 71.5453 892.416 112.561 889.799 120.5H782.061V116.132C782.478 81.6505 810.831 0 999.273 0H1017.16C1036.56 0 1054.23 0.952192 1070.39 2.73755C1038.62 22.2575 1019.26 46.6217 1007.78 71.3311L1007.79 71.343Z" fill="white" fill-opacity="0.1"/>
</svg>
