<svg width="1920" height="720" viewBox="0 0 1920 720" fill="none" xmlns="http://www.w3.org/2000/svg" preserveAspectRatio="none">
<g clip-path="url(#clip0_72_871)">
<mask id="mask0_72_871" style="mask-type:alpha" maskUnits="userSpaceOnUse" x="0" y="0" width="1920" height="1080">
<rect width="1920" height="1080" fill="white"/>
</mask>
<g mask="url(#mask0_72_871)">
<g filter="url(#filter0_f_72_871)">
<path fill-rule="evenodd" clip-rule="evenodd" d="M829.426 436.521C902.58 452.991 943.788 519.7 1003.83 564.615C1083.93 624.526 1209.79 641.932 1233.82 739.022C1259.75 843.728 1205.19 963.878 1118.6 1028.2C1038.1 1087.99 929.699 1040.62 829.426 1039.4C731.434 1038.21 625.191 1080.59 547.201 1021.25C463.41 957.493 433.428 844.302 434.648 739.022C435.854 634.952 471.054 526.565 553.666 463.262C629.871 404.869 735.765 415.433 829.426 436.521Z" fill="#7B87C2"/>
<path fill-rule="evenodd" clip-rule="evenodd" d="M623.317 -32.2153C715.169 -25.8327 819.138 -50.5681 885.02 13.7531C951.247 78.4115 935.332 182.952 938.455 275.456C941.754 373.185 981.086 496.183 903.307 555.446C825.355 614.842 720.222 530.193 623.317 515.573C551.606 504.754 474.584 525.775 416.735 482.038C351.91 433.027 320.558 355.357 305.723 275.456C286.665 172.818 247.549 47.3033 322.528 -25.3328C397.409 -97.8748 519.31 -39.4424 623.317 -32.2153Z" fill="#FFE1EE"/>
<path fill-rule="evenodd" clip-rule="evenodd" d="M1291.17 -34.1503C1362.88 -26.9822 1426.48 10.5258 1474.28 64.455C1519.06 114.98 1527.52 181.378 1540.88 247.559C1559.87 341.633 1613.3 439.278 1566.9 523.289C1512.07 622.579 1404.37 692.395 1291.17 699.687C1172.6 707.326 1042.49 660.709 977.47 561.263C917.882 470.13 977.578 354.952 995.546 247.559C1008.99 167.233 1008.44 79.9658 1067.4 23.7817C1125.38 -31.4761 1211.47 -42.1177 1291.17 -34.1503Z" fill="#2C2B7C"/>
<path fill-rule="evenodd" clip-rule="evenodd" d="M280.239 500.826C365.425 504.466 463.283 442.681 526.293 500.123C589.579 557.817 562.745 661.59 549.371 746.177C538.528 814.751 509.646 877.443 459.107 925.045C410.219 971.092 346.548 989.014 280.239 999.667C195.588 1013.27 99.8651 1047.05 32.8961 993.52C-36.6644 937.914 -33.2986 835.159 -36.8689 746.177C-40.6544 651.832 -62.4602 535.934 12.2174 478.155C85.9357 421.118 187.117 496.847 280.239 500.826Z" fill="#BEC8F5"/>
<path fill-rule="evenodd" clip-rule="evenodd" d="M1626.55 549.283C1725.54 546.695 1846.88 497.934 1911.33 573.119C1975.72 648.232 1912.3 761.268 1891.1 857.903C1876.25 925.601 1856.25 989.64 1808.87 1040.22C1759.59 1092.83 1698.43 1135.08 1626.55 1140.35C1549.52 1146.01 1478.13 1114.09 1415.34 1069.11C1336.63 1012.71 1244.17 954.014 1232.37 857.903C1219.83 755.643 1275.16 651.148 1356.28 587.634C1430.76 529.32 1531.99 551.756 1626.55 549.283Z" fill="#EE3E88"/>
</g>
</g>
<path d="M1233.61 781.189C1278.41 786.133 1327.41 788.778 1381.22 788.778H1430.83C1953.21 788.778 2031.83 562.48 2033 466.895V454.795H1734.32C1727.08 476.783 1692.08 590.496 1407.24 591.06C1375.41 659.583 1321.77 727.108 1233.7 781.189H1233.61ZM685.424 -57H-35V143.147H664.133C980.289 143.147 1018.19 273.904 1018.19 360.338V367.147C1018.19 453.581 976.733 585.552 664.133 585.552H-35V788.995H686.552C1201.7 790.21 1307.07 559.401 1307.07 377.382V343.294C1307.07 153.382 1195.76 -57 685.424 -57ZM1407.15 140.718C1692.04 141.282 1726.99 254.995 1734.23 276.983H2032.91V264.883C2031.74 169.342 1953.17 -57 1430.74 -57H1381.13C1327.32 -57 1278.32 -54.3545 1233.53 -49.4105C1321.6 4.7138 1375.28 72.1957 1407.06 140.718H1407.15Z" fill="url(#paint0_linear_72_871)"/>
</g>
<defs>
<filter id="filter0_f_72_871" x="-538.677" y="-557.238" width="2974.07" height="2194.18" filterUnits="userSpaceOnUse" color-interpolation-filters="sRGB">
<feFlood flood-opacity="0" result="BackgroundImageFix"/>
<feBlend mode="normal" in="SourceGraphic" in2="BackgroundImageFix" result="shape"/>
<feGaussianBlur stdDeviation="247.972" result="effect1_foregroundBlur_72_871"/>
</filter>
<linearGradient id="paint0_linear_72_871" x1="345.31" y1="-13.1677" x2="1686.42" y2="757.149" gradientUnits="userSpaceOnUse">
<stop stop-color="white" stop-opacity="0"/>
<stop offset="1" stop-color="#BEC8F5" stop-opacity="0.5"/>
</linearGradient>
<clipPath id="clip0_72_871">
<rect width="1920" height="720" fill="white"/>
</clipPath>
</defs>
</svg>
