<svg width="1920" height="786" viewBox="0 0 1920 786" fill="none" xmlns="http://www.w3.org/2000/svg">
<path d="M1178.32 778.122C1219.91 782.711 1265.4 785.167 1315.36 785.167H1361.42C1846.45 785.167 1919.44 575.086 1920.53 486.351V475.118H1643.21C1636.49 495.531 1603.99 601.095 1339.52 601.618C1309.97 665.23 1260.17 727.916 1178.4 778.122H1178.32ZM669.339 0H0.445312V185.804H649.571C943.113 185.804 978.301 307.19 978.301 387.43V393.751C978.301 473.991 939.812 596.505 649.571 596.505H0.445312V785.369H670.386C1148.68 786.496 1246.52 572.228 1246.52 403.253V371.608C1246.52 195.305 1143.17 0 669.339 0ZM1339.44 183.549C1603.95 184.073 1636.4 289.637 1643.13 310.049H1920.45V298.816C1919.36 210.121 1846.41 0 1361.34 0H1315.28C1265.32 0 1219.83 2.45591 1178.24 7.04565C1260.01 57.2912 1309.85 119.937 1339.36 183.549H1339.44Z" fill="#E7EEFF"/>
</svg>
