<svg width="436" height="312" viewBox="0 0 436 312" fill="none" xmlns="http://www.w3.org/2000/svg">
<path d="M195.348 -1.05332C181.258 -2.91981 165.859 -3.91526 148.942 -3.91526H133.347C-30.9238 -3.91526 -55.6322 81.6803 -56 117.835V122.411H37.9149C40.1904 114.088 51.1885 71.0897 140.771 70.8823C150.769 44.9728 167.651 19.4365 195.348 -1.0395V-1.05332ZM367.72 315.972H594.256V240.276H374.421C275.012 240.276 263.095 190.821 263.095 158.123V155.538C263.095 122.84 276.127 72.9286 374.421 72.9286H594.256V-3.99822H367.364C205.369 -4.45447 172.248 82.8555 172.248 151.694V164.594C172.248 236.433 207.242 316 367.72 316V315.972ZM140.782 241.189C51.2 240.981 40.2019 197.969 37.9264 189.66H-56V194.236C-55.6322 230.377 -30.9238 315.986 133.347 315.986H148.942C165.859 315.986 181.27 314.991 195.348 313.11C167.663 292.648 150.781 267.112 140.771 241.189H140.782Z" fill="#7B87C2"/>
</svg>
