<svg width="1060" height="312" viewBox="0 0 1060 312" fill="none" xmlns="http://www.w3.org/2000/svg">
<g clip-path="url(#clip0_852_4560)">
<path d="M353.715 327.888C371.606 329.865 391.171 330.919 412.66 330.919H432.462C641.129 330.919 672.513 240.505 672.987 202.323V197.486H553.686C550.788 206.277 536.822 251.695 423.029 251.919C410.328 279.293 388.879 306.259 353.701 327.874L353.715 327.888ZM134.757 -6.98682H-153V72.9755H126.246C252.53 72.9755 267.668 125.207 267.668 159.739V162.467C267.668 196.998 251.107 249.718 126.246 249.718H-153V330.998H135.219C340.987 331.486 383.069 239.266 383.069 166.553V152.938C383.069 77.0613 338.603 -6.98682 134.757 -6.98682ZM423.042 72.0002C536.835 72.2243 550.801 117.642 553.699 126.433H673V121.596C672.539 83.414 641.143 -7 432.475 -7H412.673C391.185 -7 371.62 -5.94561 353.728 -3.96863C388.905 17.6464 410.341 44.6256 423.055 71.987L423.042 72.0002Z" fill="#F2F6FF"/>
<path d="M1032.29 327.888C1014.39 329.865 994.829 330.919 973.34 330.919H953.538C744.871 330.919 713.487 240.505 713.013 202.323V197.486H832.314C835.212 206.277 849.178 251.695 962.971 251.919C975.672 279.293 997.121 306.259 1032.3 327.874L1032.29 327.888ZM1251.24 -6.98682H1539V72.9755H1259.75C1133.47 72.9755 1118.33 125.207 1118.33 159.739V162.467C1118.33 196.998 1134.89 249.718 1259.75 249.718H1539V330.998H1250.78C1045.01 331.486 1002.93 239.266 1002.93 166.553V152.938C1002.93 77.0613 1047.4 -6.98682 1251.24 -6.98682ZM962.958 72.0002C849.165 72.2243 835.199 117.642 832.301 126.433H713V121.596C713.461 83.414 744.857 -7 953.525 -7H973.327C994.815 -7 1014.38 -5.94561 1032.27 -3.96863C997.095 17.6464 975.659 44.6256 962.945 71.987L962.958 72.0002Z" fill="#F2F6FF"/>
</g>
<defs>
<clipPath id="clip0_852_4560">
<path d="M0 20C0 8.95431 8.95431 0 20 0H1040C1051.05 0 1060 8.95431 1060 20V292C1060 303.046 1051.05 312 1040 312H20C8.95429 312 0 303.046 0 292V20Z" fill="white"/>
</clipPath>
</defs>
</svg>
