<svg width="300" height="676" viewBox="0 0 300 676" fill="none" xmlns="http://www.w3.org/2000/svg">
<path d="M98.4291 669.775C134.213 673.729 173.343 675.838 216.32 675.838H255.924C673.259 675.838 736.025 495.01 736.974 418.646V408.972H498.373C492.576 426.554 464.644 517.389 237.057 517.838C211.656 572.587 168.758 626.519 98.4027 669.749L98.4291 669.775ZM-339.485 0.0263598H-915V159.951H-356.507C-103.941 159.951 -73.6641 264.415 -73.6641 333.477V338.934C-73.6641 407.996 -106.786 513.435 -356.507 513.435H-915V675.996H-338.563C72.9747 676.971 157.137 492.532 157.137 347.105V319.876C157.137 168.123 68.2054 0.0263598 -339.485 0.0263598ZM237.084 158C464.671 158.449 492.602 249.284 498.399 266.866H737V257.192C736.078 180.828 673.285 0 255.951 0H216.346C173.369 0 134.239 2.10878 98.4554 6.06275C168.81 49.2928 211.682 103.251 237.11 157.974L237.084 158Z" fill="#F2F6FF"/>
</svg>
