<svg width="218" height="32" viewBox="0 0 218 32" fill="none" xmlns="http://www.w3.org/2000/svg">
<path d="M67.0587 0H77.1207L87.1828 15.1909L97.2474 0H107.31V23.4816H100.602V7.51589L90.5403 23.4816H83.8331L73.771 7.51589V23.4816H67.0639V0H67.0587ZM117.372 4.95929H110.664V0H117.372V4.9619V4.95929ZM117.372 23.479H110.664V6.76195H117.372V23.4816V23.479ZM157.622 4.9619H150.915V0H157.622V4.9619ZM157.622 23.4816H150.915V6.76195H157.622V23.4816ZM211.29 6.75935V9.54813C210.338 8.66375 208.293 6.75935 202.452 6.75935H201.763C193.921 6.75935 191.163 10.6986 191.163 14.9666V15.6214C191.163 20.1502 194.38 23.4842 202.684 23.4842H203.078C208.621 23.4842 210.471 22.1851 211.324 21.3998C211.324 23.6616 211.293 26.8391 206.589 26.8391H204.257C200.86 26.8704 199.877 25.7747 199.551 25.1617H192.257C192.382 26.8339 193.777 31.308 204.257 31.308H206.589C217.416 31.308 218 24.8434 218 21.6268V6.75935H211.29ZM211.29 15.4883C211.29 17.5232 209.506 19.5554 204.847 19.5554H204.648C200.156 19.5554 197.871 17.4579 197.871 15.4544V15.2901C197.871 13.323 199.89 11.3534 204.648 11.3534H204.847C209.441 11.3534 211.29 13.2578 211.29 15.3579V15.4883ZM120.726 6.76195H127.434V9.78031C128.391 8.92724 132.317 6.36803 138.023 6.36803H138.27C144.899 6.36803 147.558 9.84553 147.558 13.2578V23.4816H140.851V15.6866C140.851 12.9969 137.952 11.2908 134.48 11.2908C131.008 11.2908 127.434 13.1926 127.434 16.0805V23.4816H120.726V6.76195ZM160.977 6.76195H167.684V9.78031C168.642 8.92724 172.568 6.36803 178.273 6.36803H178.521C185.15 6.36803 187.809 9.84553 187.809 13.2578V23.4816H181.101V15.6866C181.101 12.9969 178.203 11.2908 174.731 11.2908C171.259 11.2908 167.684 13.1926 167.684 16.0805V23.4816H160.977V6.76195Z" fill="#162035"/>
<path d="M31.4201 23.2625C32.6645 23.4007 34.0237 23.4738 35.5159 23.4738H36.8933C51.3929 23.4738 53.5765 17.1919 53.6078 14.5413V14.2048H45.3171C45.1162 14.8153 44.1458 17.9719 36.2385 17.9875C35.3568 19.8893 33.8646 21.7624 31.4201 23.2651V23.2625ZM16.2031 0H0V5.6454H15.6135C24.3895 5.6454 25.4408 9.1829 25.4408 11.5804V11.7708C25.4408 14.1709 24.2903 17.831 15.6135 17.831H0V23.4764H16.2344C30.5331 23.5103 33.4576 17.1032 33.4576 12.0526V11.1056C33.4602 5.83845 30.3688 0 16.2031 0Z" fill="#162035"/>
<path d="M36.2359 5.48626C44.1431 5.50191 45.1136 8.65854 45.3145 9.26899H53.6052V8.93246C53.5739 6.27933 51.3903 0 36.8907 0H35.5133C34.0211 0 32.6593 0.0730458 31.4175 0.211311C33.8619 1.71397 35.3516 3.58707 36.2359 5.48887V5.48626Z" fill="#4946FF"/>
</svg>
